<svg xmlns="http://www.w3.org/2000/svg" viewBox="0 0 64 64" role="img" aria-label="Śpiewnik Wspólnoty Biblijnej KWCh logo">
  <rect width="64" height="64" rx="14" fill="#0b1020" />
  <circle cx="32" cy="32" r="22" fill="#caa545" />
  <path
    fill="#fef7e5"
    d="M30 16h4a3 3 0 0 1 3 3v10h9a3 3 0 0 1 3 3v4a3 3 0 0 1-3 3h-9v9a3 3 0 0 1-3 3h-4a3 3 0 0 1-3-3v-9h-9a3 3 0 0 1-3-3v-4a3 3 0 0 1 3-3h9V19a3 3 0 0 1 3-3Z"
  />
  <rect x="24" y="40" width="16" height="5" rx="2.5" fill="#0b1020" />
</svg>
